<svg width="100" height="95" viewBox="0 0 100 95" fill="none" xmlns="http://www.w3.org/2000/svg">
<path d="M28.0899 22L42.0724 3.875C43.0712 2.54167 44.2572 1.5625 45.6305 0.9375C47.0037 0.3125 48.4394 0 49.9376 0C51.4357 0 52.8714 0.3125 54.2447 0.9375C55.618 1.5625 56.804 2.54167 57.8027 3.875L71.7853 22L93.0087 29.125C95.1727 29.7917 96.8789 31.0208 98.1273 32.8125C99.3758 34.6042 100 36.5833 100 38.75C100 39.75 99.8543 40.75 99.563 41.75C99.2717 42.75 98.7932 43.7083 98.1273 44.625L84.3945 64.125L84.8939 84.625C84.9771 87.5417 84.02 90 82.0225 92C80.025 94 77.6946 95 75.0312 95C74.8648 95 73.9492 94.875 72.2846 94.625L49.9376 88.375L27.5905 94.625C27.1744 94.7917 26.7166 94.8958 26.2172 94.9375C25.7179 94.9792 25.2601 95 24.8439 95C22.1806 95 19.8502 94 17.8527 92C15.8552 90 14.898 87.5417 14.9813 84.625L15.4806 64L1.87266 44.625C1.20682 43.7083 0.728256 42.75 0.436954 41.75C0.145651 40.75 0 39.75 0 38.75C0 36.6667 0.603412 34.7292 1.81024 32.9375C3.01706 31.1458 4.70246 29.875 6.86642 29.125L28.0899 22Z" fill="#FFD919"/>
</svg>
