<svg width="100" height="68" viewBox="0 0 100 68" fill="none" xmlns="http://www.w3.org/2000/svg">
<path id="icon-eye" d="M50 0C27.2727 0 7.86364 14.0987 0 34C7.86364 53.9013 27.2727 68 50 68C72.7273 68 92.1364 53.9013 100 34C92.1364 14.0987 72.7273 0 50 0ZM50 56.6667C37.4545 56.6667 27.2727 46.512 27.2727 34C27.2727 21.488 37.4545 11.3333 50 11.3333C62.5455 11.3333 72.7273 21.488 72.7273 34C72.7273 46.512 62.5455 56.6667 50 56.6667ZM50 20.4C42.4545 20.4 36.3636 26.4747 36.3636 34C36.3636 41.5253 42.4545 47.6 50 47.6C57.5455 47.6 63.6364 41.5253 63.6364 34C63.6364 26.4747 57.5455 20.4 50 20.4Z" fill="black" fill-opacity="0.2"/>
</svg>
