<svg width="12" height="14" viewBox="0 0 12 14" fill="none" xmlns="http://www.w3.org/2000/svg">
<path d="M3.33317 11H8.6665V9.66666H3.33317V11ZM3.33317 8.33333H8.6665V6.99999H3.33317V8.33333ZM1.99984 13.6667C1.63317 13.6667 1.31928 13.5361 1.05817 13.275C0.797059 13.0139 0.666504 12.7 0.666504 12.3333V1.66666C0.666504 1.29999 0.797059 0.986106 1.05817 0.724995C1.31928 0.463884 1.63317 0.333328 1.99984 0.333328H7.33317L11.3332 4.33333V12.3333C11.3332 12.7 11.2026 13.0139 10.9415 13.275C10.6804 13.5361 10.3665 13.6667 9.99984 13.6667H1.99984ZM6.6665 4.99999V1.66666H1.99984V12.3333H9.99984V4.99999H6.6665Z" fill="black"/>
</svg>
