<svg width="22" height="22" viewBox="0 0 22 22" fill="none" xmlns="http://www.w3.org/2000/svg">
<path d="M7.33341 16.5002H14.6667V14.6668H7.33341V16.5002ZM7.33341 12.8335H14.6667V11.0002H7.33341V12.8335ZM5.50008 20.1668C4.99591 20.1668 4.56432 19.9873 4.20529 19.6283C3.84626 19.2693 3.66675 18.8377 3.66675 18.3335V3.66683C3.66675 3.16266 3.84626 2.73107 4.20529 2.37204C4.56432 2.01301 4.99591 1.8335 5.50008 1.8335H12.8334L18.3334 7.3335V18.3335C18.3334 18.8377 18.1539 19.2693 17.7949 19.6283C17.4358 19.9873 17.0042 20.1668 16.5001 20.1668H5.50008ZM11.9167 8.25016V3.66683H5.50008V18.3335H16.5001V8.25016H11.9167Z" fill="#3B68EF"/>
</svg>
