<svg width="16" height="15" viewBox="0 0 16 15" fill="none" xmlns="http://www.w3.org/2000/svg">
<path d="M4.49438 3.47368L6.73159 0.611842C6.89139 0.401316 7.08115 0.246711 7.30087 0.148026C7.5206 0.0493421 7.75031 0 7.99001 0C8.22971 0 8.45943 0.0493421 8.67915 0.148026C8.89888 0.246711 9.08864 0.401316 9.24844 0.611842L11.4856 3.47368L14.8814 4.59868C15.2276 4.70395 15.5006 4.89803 15.7004 5.18092C15.9001 5.46382 16 5.77632 16 6.11842C16 6.27632 15.9767 6.43421 15.9301 6.59211C15.8835 6.75 15.8069 6.90132 15.7004 7.04605L13.5031 10.125L13.583 13.3618C13.5963 13.8224 13.4432 14.2105 13.1236 14.5263C12.804 14.8421 12.4311 15 12.005 15C11.9784 15 11.8319 14.9803 11.5655 14.9408L7.99001 13.9539L4.41448 14.9408C4.3479 14.9671 4.27466 14.9836 4.19476 14.9901C4.11486 14.9967 4.04161 15 3.97503 15C3.5489 15 3.17603 14.8421 2.85643 14.5263C2.53683 14.2105 2.38369 13.8224 2.397 13.3618L2.4769 10.1053L0.299625 7.04605C0.193092 6.90132 0.116521 6.75 0.0699126 6.59211C0.0233042 6.43421 0 6.27632 0 6.11842C0 5.78947 0.096546 5.48355 0.289638 5.20066C0.48273 4.91776 0.752393 4.71711 1.09863 4.59868L4.49438 3.47368Z" fill="black" fill-opacity="0.05"/>
<path d="M4.65163 3.94832L4.79517 3.90076L4.8883 3.78162L7.12551 0.919783L7.12555 0.919814L7.12985 0.914144C7.2441 0.763628 7.36958 0.665284 7.50572 0.604136C7.66136 0.534238 7.82128 0.5 7.99001 0.5C8.15874 0.5 8.31867 0.534238 8.4743 0.604136C8.61045 0.665284 8.73593 0.763628 8.85018 0.914144L8.85014 0.914175L8.85452 0.919783L11.0917 3.78162L11.1849 3.90076L11.3284 3.94832L14.7242 5.07332L14.7241 5.07346L14.736 5.07706C14.981 5.15156 15.1593 5.28152 15.2919 5.46932C15.4329 5.66896 15.5 5.88095 15.5 6.11842C15.5 6.22638 15.4842 6.33665 15.4505 6.45055C15.4218 6.54788 15.373 6.6474 15.2977 6.74966L15.2977 6.74963L15.2934 6.75561L13.0961 9.83455L12.9992 9.97044L13.0033 10.1373L13.0832 13.3742L13.0832 13.3763C13.0927 13.7022 12.9903 13.9551 12.7722 14.1706C12.5453 14.3949 12.302 14.4958 12.0225 14.4999L12.0192 14.4995C12.0024 14.4976 11.9771 14.4944 11.9419 14.4897C11.8774 14.481 11.7867 14.468 11.669 14.4507L8.12304 13.472L7.99001 13.4353L7.85699 13.472L4.28146 14.4588L4.25562 14.4659L4.2307 14.4758C4.21491 14.482 4.19045 14.4888 4.15373 14.4918C4.08483 14.4975 4.0255 14.5 3.97503 14.5C3.68819 14.5 3.43951 14.3995 3.20786 14.1706C2.9897 13.9551 2.88737 13.7022 2.8968 13.3763L2.89685 13.3741L2.97675 10.1175L2.98084 9.95103L2.88427 9.81534L0.706987 6.75613L0.707039 6.75609L0.702306 6.74966C0.627036 6.6474 0.578186 6.54788 0.549456 6.45055C0.515833 6.33665 0.5 6.22638 0.5 6.11842C0.5 5.89435 0.563738 5.68599 0.702609 5.48253C0.83018 5.29563 1.00793 5.15857 1.2583 5.07251L4.65163 3.94832ZM12.0328 14.501L12.0324 14.5009L12.0328 14.501Z" stroke="black" stroke-opacity="0.03"/>
</svg>
