<svg width="48" height="48" viewBox="0 0 48 48" fill="none" xmlns="http://www.w3.org/2000/svg">
<path d="M31.3 24L24 16.7L16.7 24L18.8 26.1L22.5 22.4L22.5 31.5L25.5 31.5L25.5 22.4L29.2 26.1L31.3 24ZM44 24C44 26.7333 43.475 29.3167 42.425 31.75C41.375 34.1833 39.9417 36.3083 38.125 38.125C36.3083 39.9417 34.1833 41.375 31.75 42.425C29.3167 43.475 26.7333 44 24 44C21.2333 44 18.6333 43.475 16.2 42.425C13.7667 41.375 11.65 39.9417 9.85 38.125C8.05 36.3083 6.625 34.1833 5.575 31.75C4.525 29.3167 4 26.7333 4 24C4 21.2333 4.525 18.6333 5.575 16.2C6.625 13.7667 8.05 11.65 9.85 9.85C11.65 8.05 13.7667 6.625 16.2 5.575C18.6333 4.525 21.2333 4 24 4C26.7333 4 29.3167 4.525 31.75 5.575C34.1833 6.625 36.3083 8.05 38.125 9.85C39.9417 11.65 41.375 13.7667 42.425 16.2C43.475 18.6333 44 21.2333 44 24Z" fill="black" fill-opacity="0.2"/>
</svg>
