<svg width="600" height="600" viewBox="0 0 600 600" fill="none" xmlns="http://www.w3.org/2000/svg">
<path d="M300 363.878L76.4258 587.452C68.0608 595.817 57.4144 600 44.4867 600C31.5589 600 20.9125 595.817 12.5475 587.452C4.18249 579.087 0 568.441 0 555.513C0 542.586 4.18249 531.939 12.5475 523.574L236.122 300L12.5475 76.4258C4.18249 68.0608 0 57.4144 0 44.4867C0 31.5589 4.18249 20.9125 12.5475 12.5475C20.9125 4.18249 31.5589 0 44.4867 0C57.4144 0 68.0608 4.18249 76.4258 12.5475L300 236.122L523.574 12.5475C531.939 4.18249 542.586 0 555.513 0C568.441 0 579.087 4.18249 587.452 12.5475C595.817 20.9125 600 31.5589 600 44.4867C600 57.4144 595.817 68.0608 587.452 76.4258L363.878 300L587.452 523.574C595.817 531.939 600 542.586 600 555.513C600 568.441 595.817 579.087 587.452 587.452C579.087 595.817 568.441 600 555.513 600C542.586 600 531.939 595.817 523.574 587.452L300 363.878Z" fill="black" fill-opacity="0.5"/>
</svg>
