<svg width="135" height="28" viewBox="0 0 135 28" fill="none" xmlns="http://www.w3.org/2000/svg">
<path d="M5.232 19.116C6.744 21.924 8.532 23.328 10.596 23.328C12.156 23.328 13.296 23.028 14.016 22.428C14.76 21.804 15.132 20.964 15.132 19.908C15.132 19.284 14.916 18.756 14.484 18.324C14.076 17.892 13.548 17.532 12.9 17.244C12.276 16.956 11.4 16.62 10.272 16.236C8.544 15.612 7.128 15.024 6.024 14.472C4.944 13.896 4.008 13.068 3.216 11.988C2.424 10.884 2.028 9.468 2.028 7.74C2.028 6.18 2.412 4.824 3.18 3.672C3.948 2.52 5.016 1.632 6.384 1.008C7.776 0.383999 9.372 0.0719991 11.172 0.0719991C12.252 0.0719991 13.368 0.311999 14.52 0.791998C15.696 1.248 16.776 1.98 17.76 2.988C18.768 3.972 19.56 5.22 20.136 6.732L15.348 8.496C14.772 7.08 14.112 6.096 13.368 5.544C12.648 4.992 11.916 4.716 11.172 4.716C9.972 4.716 9.048 5.004 8.4 5.58C7.776 6.156 7.464 6.876 7.464 7.74C7.464 8.364 7.68 8.904 8.112 9.36C8.544 9.816 9.084 10.2 9.732 10.512C10.404 10.824 11.328 11.208 12.504 11.664C14.208 12.336 15.588 12.96 16.644 13.536C17.724 14.112 18.648 14.928 19.416 15.984C20.184 17.016 20.568 18.324 20.568 19.908C20.568 21.492 20.16 22.896 19.344 24.12C18.552 25.32 17.4 26.268 15.888 26.964C14.4 27.636 12.636 27.972 10.596 27.972C8.604 27.972 6.768 27.42 5.088 26.316C3.432 25.188 2.004 23.628 0.804 21.636L5.232 19.116ZM27.8993 19.116C29.4113 21.924 31.1993 23.328 33.2633 23.328C34.8233 23.328 35.9633 23.028 36.6833 22.428C37.4273 21.804 37.7993 20.964 37.7993 19.908C37.7993 19.284 37.5833 18.756 37.1513 18.324C36.7433 17.892 36.2153 17.532 35.5673 17.244C34.9433 16.956 34.0673 16.62 32.9393 16.236C31.2113 15.612 29.7953 15.024 28.6913 14.472C27.6113 13.896 26.6753 13.068 25.8833 11.988C25.0913 10.884 24.6953 9.468 24.6953 7.74C24.6953 6.18 25.0793 4.824 25.8473 3.672C26.6153 2.52 27.6833 1.632 29.0513 1.008C30.4433 0.383999 32.0393 0.0719991 33.8393 0.0719991C34.9193 0.0719991 36.0353 0.311999 37.1873 0.791998C38.3633 1.248 39.4433 1.98 40.4273 2.988C41.4353 3.972 42.2273 5.22 42.8033 6.732L38.0153 8.496C37.4393 7.08 36.7793 6.096 36.0353 5.544C35.3153 4.992 34.5833 4.716 33.8393 4.716C32.6393 4.716 31.7153 5.004 31.0673 5.58C30.4433 6.156 30.1313 6.876 30.1313 7.74C30.1313 8.364 30.3473 8.904 30.7793 9.36C31.2113 9.816 31.7513 10.2 32.3993 10.512C33.0713 10.824 33.9953 11.208 35.1713 11.664C36.8753 12.336 38.2553 12.96 39.3113 13.536C40.3913 14.112 41.3153 14.928 42.0833 15.984C42.8513 17.016 43.2353 18.324 43.2353 19.908C43.2353 21.492 42.8273 22.896 42.0113 24.12C41.2193 25.32 40.0673 26.268 38.5553 26.964C37.0673 27.636 35.3033 27.972 33.2633 27.972C31.2713 27.972 29.4353 27.42 27.7553 26.316C26.0993 25.188 24.6713 23.628 23.4713 21.636L27.8993 19.116ZM58.8756 14.04C60.1236 14.04 61.1316 13.62 61.8996 12.78C62.6916 11.94 63.0876 10.86 63.0876 9.54C63.0876 8.22 62.6916 7.14 61.8996 6.3C61.1316 5.46 60.1236 5.04 58.8756 5.04H53.5836V14.04H58.8756ZM59.0556 0.36C60.9036 0.36 62.5476 0.756 63.9876 1.548C65.4276 2.316 66.5436 3.396 67.3356 4.788C68.1516 6.18 68.5596 7.764 68.5596 9.54C68.5596 11.316 68.1516 12.9 67.3356 14.292C66.5436 15.684 65.4276 16.776 63.9876 17.568C62.5476 18.336 60.9036 18.72 59.0556 18.72H53.5836V27.648H48.1116V0.36H59.0556ZM83.7541 23.184C86.3221 23.184 88.3501 22.368 89.8381 20.736C91.3501 19.08 92.1061 16.836 92.1061 14.004C92.1061 11.172 91.3501 8.94 89.8381 7.308C88.3501 5.652 86.3221 4.824 83.7541 4.824C81.1861 4.824 79.1461 5.652 77.6341 7.308C76.1461 8.94 75.4021 11.172 75.4021 14.004C75.4021 16.836 76.1461 19.08 77.6341 20.736C79.1461 22.368 81.1861 23.184 83.7541 23.184ZM83.7541 0.0719991C86.4181 0.0719991 88.7941 0.671999 90.8821 1.872C92.9941 3.048 94.6381 4.692 95.8141 6.804C96.9901 8.916 97.5781 11.316 97.5781 14.004C97.5781 16.692 96.9901 19.092 95.8141 21.204C94.6381 23.316 92.9941 24.972 90.8821 26.172C88.7941 27.348 86.4181 27.936 83.7541 27.936C81.0901 27.936 78.7021 27.348 76.5901 26.172C74.5021 24.972 72.8701 23.316 71.6941 21.204C70.5181 19.092 69.9301 16.692 69.9301 14.004C69.9301 11.316 70.5181 8.916 71.6941 6.804C72.8701 4.692 74.5021 3.048 76.5901 1.872C78.7021 0.671999 81.0901 0.0719991 83.7541 0.0719991ZM106.864 0.36V27.648H101.392V0.36H106.864ZM120.362 22.896C122.906 22.896 124.91 22.104 126.374 20.52C127.862 18.912 128.606 16.74 128.606 14.004C128.606 11.268 127.862 9.108 126.374 7.524C124.91 5.916 122.906 5.112 120.362 5.112L117.122 5.148V22.86L120.362 22.896ZM120.47 0.36C123.11 0.36 125.462 0.935999 127.526 2.088C129.59 3.24 131.198 4.86 132.35 6.948C133.502 9.012 134.078 11.364 134.078 14.004C134.078 16.644 133.502 19.008 132.35 21.096C131.198 23.16 129.59 24.768 127.526 25.92C125.462 27.072 123.11 27.648 120.47 27.648H111.65V0.36H120.47Z" fill="url(#paint0_linear_1271_1733)"/>
<defs>
<linearGradient id="paint0_linear_1271_1733" x1="7.66523" y1="-368.5" x2="184.877" y2="-354.966" gradientUnits="userSpaceOnUse">
<stop stop-color="#3B68EF"/>
<stop offset="1" stop-color="#8B5BFE"/>
</linearGradient>
</defs>
</svg>
